<?xml version="1.0" encoding="UTF-8"?>
<svg id="a" data-name="Layer 1" xmlns="http://www.w3.org/2000/svg" viewBox="0 0 1080 1080">
  <defs>
    <style>
      .c {
        fill: #364767;
      }

      .d {
        fill: #a7dad2;
        opacity: .57;
      }

      .e {
        fill: #ffffda;
      }

      .f {
        fill: #61bdee;
      }
    </style>
  </defs>
  <g>
    <path class="f" d="M803.84,743.65c-15.66,17.48-33.56,32.78-53.03,45.35-20.77,31.61-48.91,60.02-84.75,82.99-150.65,96.46-358.19,27.91-414.79-141.46-7.46-22.22-11.86-45.27-13.07-68.35-17.2-33.59-27.95-71.9-30.07-114.13-8.95-177.62,154.7-321.57,330.91-285.48,23.12,4.63,45.41,12.41,66.18,22.89,37.92,2.02,76.82,11.95,114.77,31.25,159.57,81.16,203.46,293.66,83.85,426.94Z"/>
    <circle class="e" cx="503.92" cy="536.25" r="259.41"/>
    <circle class="d" cx="510.51" cy="624.38" r="259.41"/>
  </g>
  <path class="c" d="M719.99,316.71c-37.95-19.3-76.85-29.23-114.77-31.25-20.77-10.48-43.06-18.26-66.18-22.89-176.21-36.09-339.86,107.86-330.91,285.48,2.12,42.23,12.87,80.54,30.07,114.13,1.21,23.08,5.61,46.13,13.07,68.35,56.6,169.37,264.14,237.92,414.79,141.46,35.84-22.97,63.98-51.38,84.75-82.99,19.47-12.57,37.37-27.87,53.03-45.35,119.61-133.28,75.72-345.78-83.85-426.94ZM786.57,729.95c-4.12,5.8-8.52,11.4-13.11,16.82,64.92-151.46-14.6-345.9-205.96-375.02,151.2,45.62,234.02,213.16,167.61,356.21-93.7,197.67-371.77,191.75-463.23-5.41-2.99-6.46-5.69-13.04-8.13-19.65,65.2,85.91,177.23,128.02,280.86,105.17,2.63-.58,5.26-1.2,7.89-1.86,52.17-13.28,101.78-43.25,141.75-92.69-39.38,36.52-87.23,59.09-136.76,67.89-.28.08-.55.12-.83.16-1.02.19-2,.35-2.98.5.7-54.46,6.2-78.16,11.73-96.26.08-.31.2-.59.28-.9v-.04c1.37-4.47,2.75-8.68,4.04-13.08,0,0,1.77,1.37,3.81,2.85h.04c.51,1.98,1.49,3.85,2.79,5.56.11.2.23.35.39.55.16.19.31.39.51.54,3.02,3.39,7.5,5.34,10.28,8.99,3.03,3.86,3.18,9.23,6.6,12.89,1.49,1.63,3.18,2.45,4.98,2.76-.35,1.48-.35,3.04.08,4.6,1.61,6.18,9.62,7.27,14.92,8.44,6.75,1.48,13.7,2.34,20.61,2.45,5.73.12,12.36-.38,16.68-4.67,1.53-1.51,2.63-3.5,3.18-5.6,2.94.7,6.16.5,8.91-.7,6.87-2.96,10.13-10.43,10.52-17.48.27-4.17-.43-8.37-1.22-12.46-.23-1.36-.55-2.72-.94-3.97,2.39.78,4.44,1.25,6.16,1.25,3.06,0,5.73-2.8,8.05-7.71,4.55-9.65,7.81-27.36,9.93-47.25.43-4.01.86-8.18,1.18-12.34.16-1.48.27-3.04.39-4.68l-29.91.51-.2-10.31,30.5-.51c.08-3.7.08-7.63-.07-11.68l-49.74.62-15.07-16.58c-4.12,1.17-8.79,0-11.9-3.38-4.35-4.75-3.96-12.11.83-16.39,4.83-4.32,12.25-3.97,16.6.78,3.1,3.38,3.77,8.09,2.2,12.1l11.97,13.12,44.48-.54c-.16-1.95-.36-3.9-.59-5.88-.12-.82-.2-1.64-.28-2.42-1.57-12.02-4.39-24.67-9.06-37.33l-34.86.43c-1.89,3.86-5.81,6.54-10.44,6.58-6.48.12-11.82-5.06-11.9-11.48-.04-6.42,5.15-11.68,11.62-11.76,4.63-.04,8.64,2.53,10.56,6.35l30.78-.39c-.87-1.95-1.81-3.89-2.79-5.84-6.87-13.51-16.25-26.74-28.85-38.85-6.2-5.95-13.03-11.05-20.1-15.45l-9.22,15.92c2.43,3.54,2.78,8.33.47,12.26-3.22,5.57-10.41,7.51-16.02,4.32-5.61-3.19-7.57-10.31-4.32-15.88,2.28-3.97,6.56-6.11,10.88-5.84l9.22-15.92c-17.9-9.42-36.35-14.6-49.46-16.97-6.24-1.13-11.3-1.64-14.48-1.64-13.82,0-16.14,16.12-16.14,16.12,0,0-.23,48.34-.23,59.98s25.12,1.68,25.59,1.48c-1.02.7-13.54,10.16-16.64,12.42-2.24,1.6-4.79,2.41-7.34,2.96-1.26.08-2.51.15-3.73.23h-.04c-1.22-.08-2.47-.15-3.77-.23-2.47-.55-5.06-1.36-7.26-2.96-3.18-2.26-15.66-11.72-16.68-12.42.51.2,25.59,10.01,25.59-1.48s-.2-59.98-.2-59.98c0,0-2.35-16.12-16.13-16.12-3.26,0-8.28.51-14.48,1.64-13.15,2.37-31.6,7.55-49.46,16.97l9.18,15.92c4.32-.27,8.6,1.87,10.91,5.84,3.22,5.57,1.26,12.69-4.35,15.88-5.62,3.19-12.8,1.25-16.02-4.32-2.28-3.93-2-8.72.43-12.26l-9.18-15.92c-7.11,4.4-13.94,9.5-20.1,15.45-12.64,12.11-21.98,25.34-28.89,38.85-.98,1.95-1.88,3.89-2.79,5.84l30.78.39c1.96-3.82,6-6.39,10.6-6.35,6.47.08,11.65,5.34,11.58,11.76-.08,6.42-5.42,11.6-11.86,11.48-4.63-.04-8.59-2.72-10.48-6.58l-34.86-.43c-4.63,12.66-7.45,25.31-9.03,37.33-.07.78-.19,1.6-.27,2.42-.23,1.98-.43,3.93-.59,5.88l44.52.54,11.93-13.12c-1.57-4.01-.87-8.72,2.24-12.1,4.31-4.75,11.73-5.1,16.52-.78,4.83,4.28,5.18,11.64.87,16.39-3.11,3.38-7.74,4.55-11.9,3.38l-15.11,16.58-49.7-.62c-.11,4.05-.15,7.98-.07,11.68l30.46.51-.12,10.31-29.91-.51c.08,1.64.23,3.2.31,4.68.39,4.16.75,8.33,1.18,12.34,2.2,19.89,5.38,37.6,9.97,47.25,2.31,4.91,4.98,7.71,8.05,7.71,1.72,0,3.8-.47,6.16-1.25-.12.28-.2.63-.32.94-1.09,4.01-1.72,8.41-1.84,12.57-.31,7.32,2.04,14.99,8.36,19.27,3.18,2.1,7.34,2.72,11.03,1.83.39,1.32.98,2.65,1.73,3.81,3.49,4.99,9.85,6.35,15.58,6.5,6.79.12,13.66-.62,20.3-1.9,3.37-.63,6.71-1.44,9.97-2.42,2.78-.85,5.53-2.06,7.02-4.67,1.22-2.02,1.42-4.32.94-6.54,1.73-.27,3.34-1.09,4.71-2.53,3.58-3.73,3.73-9.18,6.83-13.12,1.18-1.51,2.67-2.76,4.21-3.93.58-.43,1.17-.85,1.76-1.32,1.65-1.21,3.3-2.45,4.63-4.05,1.61-1.91,2.83-4.05,3.42-6.34,2.04-1.48,3.85-2.85,3.85-2.85,1.64,5.77,3.45,11.21,5.26,17.33.07.39.19.74.31,1.13,5.18,17.82,10.01,42.42,10.44,94.9-.39.04-.82.04-1.22.07-5.06.28-10.12.43-15.19.43-80.51.04-159.95-35.58-210.4-106.27-125.76-179.33,18.45-415.18,236.35-395.13,7.1.66,14.13,1.59,21.12,2.84-164.71,20.05-294.68,185.52-224.45,364.39-35.72-152.63,69.16-307.56,227.31-322.04,219.47-18.37,353.32,223.4,226.89,400.51ZM514.62,560.51c-5.42-7.87-18.45-19.78-5.42-23.4,12.41,6.19,20.1,6.62,25.6,10.74l3.92,8.84h2.4l3.96-8.84c5.46-4.12,13.11-4.55,25.55-10.74,13.04,3.62,0,15.53-5.45,23.4-22.38,32.34-17.74,64.34-17.74,64.34-.83,1.71-.87,3.66-5.15,3.89h-4.71c-4.35-.23-4.35-2.18-5.18-3.89,0,0,4.63-32-17.78-64.34Z"/>
</svg>